<?xml version="1.0" encoding="UTF-8"?>
<!DOCTYPE svg PUBLIC "-//W3C//DTD SVG 1.1//EN" "http://www.w3.org/Graphics/SVG/1.1/DTD/svg11.dtd">
<!-- Creator: CorelDRAW 2017 -->
<svg xmlns="http://www.w3.org/2000/svg" xml:space="preserve" width="62.6984mm" height="81.7692mm" version="1.1" style="shape-rendering:geometricPrecision; text-rendering:geometricPrecision; image-rendering:optimizeQuality; fill-rule:evenodd; clip-rule:evenodd"
viewBox="0 0 121 158"
 xmlns:xlink="http://www.w3.org/1999/xlink">
 <defs>
  <style type="text/css">
   <![CDATA[
    .str0 {stroke:#332C2B;stroke-width:0.387562}
    .fil7 {fill:#FEFEFE}
    .fil0 {fill:#FFDF00}
    .fil19 {fill:#1D1819}
    .fil8 {fill:#0B080A}
    .fil13 {fill:#141517}
    .fil15 {fill:#181518}
    .fil1 {fill:#222432}
    .fil6 {fill:#323244}
    .fil16 {fill:#675858}
    .fil4 {fill:#6B2B19}
    .fil3 {fill:#784421}
    .fil18 {fill:#7A6A69}
    .fil11 {fill:#7B4826}
    .fil12 {fill:#814B27}
    .fil17 {fill:#8F8080}
    .fil14 {fill:#A2908F}
    .fil10 {fill:#F89D5D}
    .fil9 {fill:#F89E5F}
    .fil2 {fill:#F9B17A}
    .fil5 {fill:#F9B27B}
   ]]>
  </style>
 </defs>
 <g id="Layer_x0020_1">
  <metadata id="CorelCorpID_0Corel-Layer"/>
  <g id="_951419248">
   <rect class="fil0" width="121" height="158"/>
   <g>
    <path class="fil1" d="M69 54c0,3 1,6 0,8 0,1 -1,2 -2,3 -1,1 -2,1 -3,1 1,0 1,0 2,0l0 -1c1,0 1,0 2,1l1 1c0,0 0,0 0,0 -1,1 -1,2 -3,2 1,2 1,2 -1,4 -1,1 -2,3 -2,3l0 -1 0 1c0,0 0,0 0,0 0,0 0,0 0,0 0,-1 -1,-1 -1,-2l0 1c-1,-1 -2,-2 -3,-3 -2,-2 -2,-2 -2,-4 -1,0 -3,-2 -4,-3 1,-1 2,0 2,-1 -3,0 -6,0 -8,1 -1,1 -2,1 -3,2 -4,4 -3,12 0,17 0,1 1,1 1,2 1,0 2,-1 3,-2 1,-1 2,-1 2,-2 -2,-3 -4,-8 -1,-11 1,-1 2,-1 4,-1l0 14 0 1c0,2 0,3 0,4 0,1 1,2 1,4 1,2 1,7 1,10 0,5 0,9 -2,14 0,2 0,3 1,4 2,1 3,0 4,-1 1,-1 1,-5 2,-6 1,-5 1,-9 1,-14 0,-1 0,-2 0,-4 0,-1 -1,-2 -1,-4 1,0 3,0 4,0 2,0 2,0 4,1l4 4c2,2 1,1 0,7 0,2 -2,5 -2,7 0,0 0,1 1,1 2,2 5,0 5,0l1 -4c0,-1 1,-2 1,-4 1,-2 1,-6 1,-8 -1,-3 -7,-8 -10,-10l0 -17c0,-2 0,-2 0,-3 1,-2 1,-3 2,-5 2,-5 3,-10 5,-15 1,-2 1,-4 2,-5 -1,-1 -5,-2 -6,-2l-3 10c0,1 -1,2 -1,3z"/>
    <path class="fil2" d="M63 63c-1,0 -3,-1 -3,-3 2,0 4,0 6,0 0,2 -1,3 -3,3zm-4 -6c0,-1 -1,-1 0,-2 1,0 1,1 0,2zm6 -1c0,-1 0,-2 1,-1 0,1 0,1 0,1l-1 0zm-8 -2c0,-2 3,-1 3,0 -1,0 -1,-1 -2,0 0,0 0,0 -1,0zm6 -1c0,-2 3,-1 3,0 -1,0 -1,0 -1,0 -1,0 -1,0 -2,1zm-14 2c0,1 0,0 -1,1 0,1 0,3 3,3 1,2 1,3 3,4 0,0 0,0 0,0 0,0 0,0 0,0 0,0 1,0 1,0 1,0 0,0 1,0 1,0 1,0 2,0 0,0 0,0 0,0l1 0c0,0 1,0 1,0 1,0 1,0 2,0l1 0c1,-1 2,0 3,-1 1,-1 1,-1 2,-3 1,-3 0,-5 0,-8l0 -2 -1 -2c-1,-2 -1,-1 -8,0 -9,1 -4,5 -5,9 -2,1 -2,-1 -2,-3l-2 0z"/>
    <path class="fil3" d="M50 56l2 0c0,2 0,3 2,3 1,-4 -3,-8 5,-9 7,-1 7,-2 8,0l1 2c1,-2 3,-6 0,-9 -1,0 -1,1 -1,2 0,-1 0,-1 0,-1 -1,0 -1,1 -3,0 -10,-2 -10,3 -11,4 0,0 -1,1 -2,2 -1,2 -1,4 0,7z"/>
    <path class="fil4" d="M77 114c0,0 -3,2 -5,0 0,0 0,-1 -1,-1 -1,1 -1,4 -1,5 2,1 5,1 5,1 0,0 0,0 1,1 1,0 2,1 3,1 1,0 3,1 4,1 0,-1 1,-3 -2,-4 -2,-1 -3,0 -3,-2 0,-1 0,-1 0,-1z"/>
    <path class="fil4" d="M58 122c-1,1 -2,2 -4,1 -1,-1 -2,-2 -1,-4 -1,0 -1,0 -1,1 0,1 0,1 0,2 0,2 1,1 1,3 0,3 4,7 6,7 1,0 2,-2 1,-3l-1 -3c0,-1 1,-2 0,-4z"/>
    <path class="fil2" d="M78 41c1,0 1,0 1,-1 0,-1 0,-2 -2,-2 0,0 0,0 0,0 1,0 2,0 4,1 1,-1 1,-1 1,-2 -2,-1 0,0 -2,-1 0,0 0,0 0,0 -1,0 0,0 -1,0 -2,0 -1,0 -2,1 -1,1 -2,1 -1,4 1,0 3,1 3,1z"/>
    <path class="fil5" d="M51 90l0 0 0 0zm0 0l0 0zm0 0c3,0 1,-2 0,-3 1,0 1,0 1,-1l0 -1c-1,0 -2,0 -3,0 -3,2 -4,2 -3,5 0,1 0,1 1,1 1,0 0,0 1,-1 1,0 1,0 2,0l0 -1z"/>
    <path class="fil6" d="M66 66c0,1 0,2 -1,3 0,1 0,1 0,1 0,1 0,1 0,2 0,0 0,1 0,1 0,1 0,0 0,1l0 1 0 1c1,-1 2,-2 2,-3 1,-2 1,-2 1,-4 1,0 2,-1 3,-2 0,0 0,0 0,0l-1 -1c-1,0 -1,0 -2,-1l0 1z"/>
    <path class="fil6" d="M62 75l0 -1c0,-1 -1,-1 -1,-2 0,-1 -1,-1 -1,-2l-1 -1c0,0 0,0 0,0 0,0 0,0 0,0 0,0 0,0 0,0l-1 -1c0,-1 0,0 0,-1 0,0 0,0 -1,0 0,0 -1,0 -1,0l-1 0c1,1 0,0 -2,1 1,1 2,2 4,3 0,2 0,1 2,4 1,1 2,2 3,3l0 -1z"/>
    <path class="fil7" d="M76 84c0,0 4,5 6,5 0,0 1,-1 1,-1 0,-1 -5,-5 -5,-5 0,0 -1,0 -1,1z"/>
    <path class="fil8" d="M61 68c0,0 0,1 0,1l1 0c0,1 1,4 0,5l0 1c1,0 1,1 1,2 0,0 0,0 0,0 0,0 0,0 0,0l0 -1 0 -1c0,0 0,0 0,0 0,-1 -1,-3 -1,-4l0 0 0 -1c0,0 -1,0 -1,-1l0 0c0,0 0,0 0,0 0,0 0,0 -1,0z"/>
    <path class="fil7" d="M34 96c0,1 0,1 0,1 1,0 1,0 3,-2 1,-1 2,-2 2,-3 0,0 0,-1 -1,-1 -1,0 -4,4 -4,4z"/>
    <path class="fil7" d="M85 69c0,2 2,1 6,1 0,0 1,0 1,-1 0,-2 -2,-1 -5,-1 -1,0 -2,0 -2,1z"/>
    <path class="fil7" d="M19 69c0,1 0,1 5,1 1,0 1,-2 0,-2 -3,0 -5,0 -5,1z"/>
    <path class="fil7" d="M80 49c0,1 0,0 0,1l1 0c1,-1 1,-1 2,-2 1,-1 1,-1 2,-2l-1 -1c-1,0 -1,1 -2,2 0,0 -2,1 -2,2z"/>
    <path class="fil7" d="M34 41c0,1 -1,1 1,3 1,1 1,2 2,2 1,0 1,-1 1,-1 0,0 -1,-1 -1,-1 -1,-1 -2,-2 -3,-2z"/>
    <path class="fil7" d="M61 27c0,2 0,5 1,5 1,0 1,-2 1,-3 0,-1 -1,-2 -2,-1z"/>
    <path class="fil7" d="M97 69c0,1 1,1 2,1 1,0 2,0 2,0 1,-2 0,-1 -2,-2 -1,0 -2,0 -2,1z"/>
    <path class="fil9" d="M78 41c0,0 1,1 2,1 1,-1 1,0 1,-3 -2,0 -3,-1 -4,-1 0,0 0,0 0,0 2,-1 3,1 2,2 0,1 0,1 -1,1z"/>
    <path class="fil10" d="M59 66c0,1 1,1 2,1l0 0c1,0 1,0 1,-2 -1,0 -1,0 -2,0 0,0 -1,0 -1,0l-1 0c0,0 0,0 0,0z"/>
    <path class="fil7" d="M30 69c0,1 0,1 2,1 1,0 1,0 1,0 0,-1 0,-1 -2,-1 0,0 -1,0 -1,1z"/>
    <path class="fil7" d="M61 37c0,1 0,2 1,2 1,0 1,-2 0,-3 0,0 -1,0 -1,1z"/>
    <path class="fil7" d="M88 42c0,1 2,1 2,0 0,-1 -2,-1 -2,0z"/>
    <path class="fil11" d="M64 54c1,0 1,-1 2,-1 1,0 1,0 1,0 0,-1 -2,-2 -3,0z"/>
    <path class="fil12" d="M58 54c0,0 0,0 1,0 2,-1 1,0 2,0 0,-1 -2,-1 -3,0z"/>
    <path class="fil13" d="M65 57l1 0c0,-1 0,-1 0,-1 -1,0 -1,1 -1,1z"/>
    <path class="fil14" d="M59 69l1 1c0,0 0,0 1,-1l0 -1 -1 0c-1,0 0,0 -1,1z"/>
    <path class="fil15" d="M59 57c1,0 1,-1 0,-2 -1,0 -1,1 0,2z"/>
    <path class="fil16" d="M63 69c1,0 1,1 2,1 0,0 0,0 0,-1l0 0 0 1c-1,0 -1,0 -1,-1 0,0 0,0 1,0 0,0 -1,0 -1,-1l0 1z"/>
    <path class="fil17" d="M65 69l0 0c-1,0 0,0 -1,0 0,1 0,1 1,1l0 -1z"/>
    <path class="fil18" d="M60 68l1 0 0 1c0,0 0,0 0,0 0,0 0,-1 0,-1 0,0 0,0 -1,0z"/>
    <path class="fil7 str0" d="M60 60c0,2 2,3 3,3 2,0 3,-1 3,-3 -2,0 -4,0 -6,0z"/>
    <path class="fil7 str0" d="M61 67c-1,0 -2,0 -2,-1 -1,0 -1,0 -2,0 0,1 0,0 0,1l1 1c0,0 0,0 0,0 0,0 0,0 0,0 0,0 0,0 0,0 0,0 0,0 1,-1 0,0 0,0 1,0 0,0 0,0 1,0 0,0 0,0 0,0z"/>
    <path class="fil7 str0" d="M63 66c0,1 -1,1 -1,2 0,0 1,0 1,1 0,0 1,0 1,1l0 0 0 0c0,-1 1,-2 1,-3 0,0 -1,0 -2,0l-1 0z"/>
    <path class="fil7 str0" d="M65 70c-1,0 -1,-1 -2,-1l0 0c0,1 1,3 1,4 0,0 0,0 0,0 0,0 0,0 0,-1 0,0 0,-1 0,-1 0,-1 0,-1 0,-2z"/>
    <path class="fil7 str0" d="M62 74c0,-1 0,-4 0,-5l-1 0c0,0 0,0 0,0 0,0 -1,0 -1,1 0,1 1,1 1,2 0,1 1,1 1,2z"/>
    <path class="fil7" d="M8 109c0,-2 1,14 14,23 6,4 11,7 15,8 15,5 26,0 34,4 4,2 -2,8 -11,8 -39,3 -51,-17 -52,-44z"/>
    <path class="fil7" d="M102 115c0,-1 0,7 -7,12 -3,2 -5,3 -8,4 -7,2 -13,0 -17,2 -2,1 1,4 5,4 19,1 25,-8 26,-22z"/>
    <path class="fil7" d="M114 50c0,2 -1,-14 -14,-23 -6,-4 -11,-7 -15,-8 -15,-5 -26,0 -34,-4 -4,-2 2,-8 11,-8 39,-3 51,17 52,44z"/>
    <path class="fil19" d="M74 17c-3,0 -1,1 0,1 11,2 24,8 32,17 0,0 3,3 2,1 -8,-11 -20,-18 -33,-19z"/>
    <g>
     <path class="fil7" d="M16 41c0,1 0,-7 7,-12 3,-2 5,-3 8,-4 7,-2 13,0 17,-2 2,-1 -1,-4 -5,-4 -19,-1 -25,8 -26,22z"/>
     <path class="fil7" d="M37 25c2,0 1,0 0,1 -6,1 -13,5 -18,9 0,0 -2,2 -1,0 4,-6 11,-10 18,-10z"/>
    </g>
    <path class="fil7" d="M81 131c-2,0 -1,0 0,-1 6,-1 13,-5 18,-9 0,0 2,-2 1,0 -4,6 -11,10 -18,10z"/>
    <path class="fil19" d="M63 16c3,0 5,0 7,0 0,0 1,0 1,1 0,0 -1,1 -1,1 -2,0 -4,0 -7,0 0,0 -1,0 -1,-1 0,0 1,-1 1,-1z"/>
    <g>
     <path class="fil19" d="M47 141c3,0 1,-1 0,-1 -11,-2 -24,-8 -32,-17 0,0 -3,-3 -2,-1 8,11 20,18 33,19z"/>
     <path class="fil19" d="M58 141c-3,0 -5,0 -7,0 0,0 -1,0 -1,-1 0,0 1,-1 1,-1 2,0 4,0 7,0 0,0 1,0 1,1 0,0 -1,1 -1,1z"/>
    </g>
   </g>
  </g>
 </g>
</svg>
