<?xml version="1.0" encoding="UTF-8"?>
<!DOCTYPE svg PUBLIC "-//W3C//DTD SVG 1.1//EN" "http://www.w3.org/Graphics/SVG/1.1/DTD/svg11.dtd">
<!-- Creator: CorelDRAW 2017 -->
<svg xmlns="http://www.w3.org/2000/svg" xml:space="preserve" width="209mm" height="272.571mm" version="1.1" style="shape-rendering:geometricPrecision; text-rendering:geometricPrecision; image-rendering:optimizeQuality; fill-rule:evenodd; clip-rule:evenodd"
viewBox="0 0 1292 1685"
 xmlns:xlink="http://www.w3.org/1999/xlink">
 <defs>
  <style type="text/css">
   <![CDATA[
    .str0 {stroke:#332C2B;stroke-width:1.23602}
    .fil7 {fill:#FEFEFE}
    .fil0 {fill:#FFDF00}
    .fil19 {fill:#1D1819}
    .fil8 {fill:#0B080A}
    .fil13 {fill:#141517}
    .fil15 {fill:#181518}
    .fil1 {fill:#222432}
    .fil6 {fill:#323244}
    .fil16 {fill:#675858}
    .fil4 {fill:#6B2B19}
    .fil3 {fill:#784421}
    .fil18 {fill:#7A6A69}
    .fil11 {fill:#7B4826}
    .fil12 {fill:#814B27}
    .fil17 {fill:#8F8080}
    .fil14 {fill:#A2908F}
    .fil10 {fill:#F89D5D}
    .fil9 {fill:#F89E5F}
    .fil2 {fill:#F9B17A}
    .fil5 {fill:#F9B27B}
   ]]>
  </style>
 </defs>
 <g id="Layer_x0020_1">
  <metadata id="CorelCorpID_0Corel-Layer"/>
  <g id="_961452560">
   <rect class="fil0" width="1292" height="1685"/>
   <g>
    <path class="fil1" d="M735 570c-2,29 9,60 -1,87 -5,13 -13,21 -21,27 -13,10 -22,7 -33,14 7,0 11,2 16,4l4 -6c6,1 11,3 18,6l16 6c0,0 1,1 1,1 -6,11 -11,23 -27,26 9,23 9,17 -6,39 -7,10 -16,27 -23,34l0 -10 -5 15c0,0 -1,2 -1,1 0,0 -1,1 -1,1 -4,-7 -6,-14 -13,-19l3 10c-10,-9 -21,-20 -31,-31 -26,-26 -24,-20 -22,-41 -15,-3 -30,-17 -39,-28 14,-9 26,-2 17,-11 -34,-4 -64,-1 -90,11 -16,7 -24,14 -36,25 -44,41 -33,129 -1,178 4,6 8,10 10,18 9,-2 20,-12 28,-18 9,-6 18,-13 26,-19 -17,-31 -46,-85 -13,-117 9,-8 25,-13 41,-13l1 147 -1 11c0,18 0,30 2,45 2,15 7,26 10,40 6,26 13,77 12,108 -3,54 -5,96 -21,151 -3,21 0,34 15,43 22,12 36,1 47,-9 6,-11 15,-51 17,-67 9,-57 15,-96 11,-154 -1,-16 -1,-25 -3,-40 -1,-10 -6,-26 -6,-37 15,0 30,0 46,0 20,0 26,-3 37,8l48 46c17,16 15,14 2,70 -5,22 -17,58 -17,75 4,5 5,11 9,15 23,23 55,-1 56,-1l13 -39c4,-15 7,-26 10,-42 6,-24 16,-64 7,-88 -11,-28 -75,-88 -104,-107l0 -182c0,-18 0,-18 5,-32 6,-18 12,-37 19,-55 19,-50 37,-111 57,-162 6,-16 15,-39 19,-55 -11,-6 -49,-18 -63,-22l-37 107c-4,11 -8,23 -12,34z"/>
    <path class="fil2" d="M667 670c-10,0 -28,-10 -28,-28 21,0 40,-4 61,-4 0,20 -13,33 -33,33zm-37 -61c-4,-7 -6,-12 3,-16 8,5 11,14 -3,16zm65 -6c-3,-8 -4,-16 8,-14 5,7 3,7 2,15l-10 -1zm-80 -26c3,-18 28,-16 29,-3 -12,0 -7,-11 -23,0 -3,2 -1,2 -6,3zm66 -6c5,-20 31,-14 30,-2 -5,-1 -7,-5 -14,-5 -7,0 -7,4 -16,7zm-144 24c-3,9 -4,3 -8,14 -4,13 0,36 29,36 6,24 12,34 30,46 2,1 2,1 4,3 4,3 1,1 4,3 2,0 7,1 9,2 10,4 4,0 7,5 6,-4 15,-3 20,0 0,0 1,-1 2,-1l7 -2c2,0 7,-1 9,-1 9,-1 14,-2 23,0l7 -1c11,-7 20,-4 33,-14 8,-7 16,-14 21,-27 10,-27 -1,-58 1,-87l-1 -19 -14 -26c-14,-23 -10,-9 -90,0 -91,10 -45,49 -55,93 -21,9 -21,-7 -22,-28l-17 4z"/>
    <path class="fil3" d="M536 595l17 -4c1,21 1,37 22,28 10,-44 -37,-83 55,-93 79,-9 76,-22 90,0l14 26c11,-25 31,-68 -4,-92 -6,5 -9,13 -15,17 -1,-9 -2,-7 -4,-15 -14,1 -15,7 -36,3 -108,-21 -106,27 -116,38 -4,5 -14,6 -21,20 -13,26 -6,46 -1,72z"/>
    <path class="fil4" d="M821 1212c-1,0 -33,25 -56,1 -5,-5 -5,-10 -9,-15 -10,10 -15,38 -15,53 23,15 48,13 49,13 4,1 3,4 15,7 11,3 25,6 37,9 10,3 27,8 39,8 1,-12 5,-34 -23,-42 -24,-7 -31,-3 -33,-19 -2,-12 1,-7 -4,-15z"/>
    <path class="fil4" d="M621 1298c-11,9 -25,20 -47,9 -15,-8 -18,-22 -15,-43 -7,2 -9,3 -12,10 -3,6 -4,13 -3,19 4,22 9,6 12,36 3,30 43,76 65,74 13,-1 18,-16 15,-32l-13 -35c-5,-16 10,-18 -2,-38z"/>
    <path class="fil2" d="M827 431c5,0 6,4 7,-8 1,-14 -4,-26 -25,-21 4,-3 0,-1 5,-3 11,-4 24,4 41,7 11,-10 9,-6 9,-25 -16,-9 -2,-5 -20,-12 -3,-1 -1,0 -3,-2 -7,-5 -2,-5 -14,-5 -20,0 -15,-1 -26,11 -10,11 -19,7 -10,47 11,3 27,10 37,10z"/>
    <path class="fil5" d="M539 958l-2 -2 2 2zm-2 -2l0 0zm2 2c30,0 8,-24 2,-33 8,-1 10,-3 15,-7l1 -11c-7,-3 -23,-2 -30,2 -30,18 -46,26 -31,58 4,7 4,8 12,10 6,-5 3,-1 7,-9 13,3 11,3 24,0l0 -11z"/>
    <path class="fil6" d="M697 702c0,9 -3,22 -6,28 2,8 2,7 -3,11 0,12 -1,13 -3,23 -1,4 -1,8 -2,11 -1,6 0,5 -3,10l0 12 0 10c7,-6 17,-24 23,-34 15,-22 15,-17 6,-39 16,-3 21,-14 27,-26 0,0 -1,-1 -1,-1l-16 -6c-7,-2 -12,-4 -18,-6l-4 6z"/>
    <path class="fil6" d="M660 796l-2 -7c-3,-8 -8,-15 -13,-23 -5,-8 -8,-15 -12,-24l-6 -10c0,0 -1,-2 -1,-1 0,0 -1,-1 -1,-1 -3,-3 -1,-1 -3,-4l-9 -15c-4,-8 -3,-1 -3,-9 -4,-4 3,-1 -7,-5 -2,-1 -7,-1 -9,-2l-6 0c9,9 -3,1 -17,11 9,11 24,25 39,28 -3,21 -5,15 22,41 10,10 21,22 31,31l-3 -10z"/>
    <path class="fil7" d="M808 895c0,5 46,54 59,56 3,-3 6,-6 9,-9 -3,-13 -49,-56 -54,-56 -5,0 -13,0 -13,9z"/>
    <path class="fil8" d="M644 722c2,4 3,6 5,11l7 3c0,13 6,48 3,54l2 7c7,5 9,12 13,19 0,0 1,-2 1,-1 0,0 1,-1 1,-1l5 -15 0 -12c-2,-2 -1,-1 -3,-4 -5,-10 -9,-35 -13,-44l5 -4 1 -11c-5,-3 -8,-4 -12,-7l-4 0c-2,2 0,0 -4,3 -2,2 -3,2 -6,4z"/>
    <path class="fil7" d="M361 1021c0,6 1,6 2,11 13,3 13,-1 30,-18 9,-9 24,-20 24,-30 0,-5 -4,-9 -9,-9 -7,0 -48,45 -48,46z"/>
    <path class="fil7" d="M899 735c0,17 19,11 63,11 4,0 9,-4 9,-7 0,-18 -17,-10 -54,-11 -9,0 -17,-2 -17,7z"/>
    <path class="fil7" d="M203 735c0,15 0,11 56,11 12,0 12,-17 0,-17 -32,0 -56,-5 -56,7z"/>
    <path class="fil7" d="M855 522c0,8 -1,1 3,6l6 5c10,-5 13,-10 21,-18 7,-7 15,-12 18,-23l-8 -9c-11,3 -16,10 -23,17 -5,5 -17,14 -17,22z"/>
    <path class="fil7" d="M363 438c-3,14 -6,8 16,30 8,8 14,18 23,18 8,0 10,-8 6,-14 -2,-3 -11,-11 -14,-14 -8,-8 -17,-24 -31,-19z"/>
    <path class="fil7" d="M647 286c0,22 -4,50 9,50 14,0 11,-24 11,-35 0,-16 -6,-20 -20,-15z"/>
    <path class="fil7" d="M1033 737c0,9 8,9 17,9 9,0 17,0 26,0 6,-24 -1,-16 -24,-18 -8,-1 -20,-3 -20,9z"/>
    <path class="fil9" d="M827 431c5,4 12,6 17,7 10,-15 11,-5 11,-32 -17,-3 -30,-11 -41,-7 -5,2 -1,0 -5,3 21,-5 27,7 25,21 -1,12 -2,8 -7,8z"/>
    <path class="fil10" d="M632 702c3,10 10,13 22,13l4 0c6,-4 12,-3 15,-16 -9,-2 -14,-1 -23,0 -2,0 -7,0 -9,1l-7 2c0,0 -1,0 -2,1z"/>
    <path class="fil7" d="M320 735c0,12 0,11 17,11 7,0 9,-2 13,-4 0,-15 -5,-13 -24,-13 -5,0 -7,2 -7,7z"/>
    <path class="fil7" d="M647 396c0,10 -2,22 9,22 12,0 15,-25 3,-29 -5,-2 -12,1 -12,7z"/>
    <path class="fil7" d="M933 444c0,12 20,12 20,0 0,-12 -20,-12 -20,0z"/>
    <path class="fil11" d="M681 571c9,-4 9,-8 16,-7 7,0 9,4 14,5 1,-12 -25,-18 -30,2z"/>
    <path class="fil12" d="M615 576c5,-1 3,-1 6,-3 17,-12 12,0 23,0 -2,-13 -26,-15 -29,3z"/>
    <path class="fil13" d="M694 603l10 1c2,-8 3,-8 -2,-15 -12,-2 -11,6 -8,14z"/>
    <path class="fil14" d="M628 733l6 10c4,-4 5,-3 10,-8l1 -9 -9 1c-5,3 -4,3 -8,6z"/>
    <path class="fil15" d="M629 609c13,-2 11,-12 3,-16 -8,4 -7,9 -3,16z"/>
    <path class="fil16" d="M669 733c8,2 9,6 19,9 4,-4 5,-3 3,-11l-5 0 2 6c-11,1 -10,0 -14,-6 4,-3 1,-3 8,-3 -5,-3 -8,-3 -12,-6l-1 11z"/>
    <path class="fil17" d="M686 730l-5 -3c-7,0 -4,0 -8,3 4,6 3,7 14,6l-2 -6z"/>
    <path class="fil18" d="M636 727l9 -1 -1 9c3,-1 3,-1 5,-2 -2,-5 -3,-7 -5,-11 -3,2 -4,2 -8,5z"/>
    <path class="fil7 str0" d="M638 641c0,18 18,28 28,28 20,0 33,-12 33,-33 -21,0 -40,4 -61,4z"/>
    <path class="fil7 str0" d="M654 715c-12,0 -19,-3 -22,-13 -6,-3 -15,-4 -20,0 0,8 -1,1 3,9l9 15c2,3 0,1 3,4 0,0 1,2 1,1 0,0 1,1 1,1 4,-3 3,-3 8,-6 3,-3 4,-3 8,-5 3,-2 4,-2 6,-4 4,-3 1,-1 4,-3z"/>
    <path class="fil7 str0" d="M673 699c-4,13 -9,13 -15,16 4,3 7,4 12,7 4,3 7,3 12,6l5 3 5 0c3,-7 6,-19 6,-28 -5,-2 -9,-4 -16,-4l-7 1z"/>
    <path class="fil7 str0" d="M688 741c-10,-2 -12,-6 -19,-9l-5 4c4,9 8,34 13,44 2,3 1,2 3,4 3,-5 1,-3 3,-10 1,-3 1,-7 2,-11 2,-10 3,-11 3,-23z"/>
    <path class="fil7 str0" d="M658 789c3,-6 -3,-41 -3,-54l-7 -3c-2,2 -2,1 -5,2 -5,5 -5,4 -10,8 4,9 7,16 12,24 5,8 10,14 13,23z"/>
    <path class="fil7" d="M83 1158c5,-21 9,145 145,249 59,45 114,73 164,89 159,53 275,-5 363,43 43,24 -17,81 -118,88 -413,31 -547,-176 -553,-470z"/>
    <path class="fil7" d="M1085 1220c-3,-10 -4,71 -71,122 -29,22 -56,36 -81,44 -78,26 -135,-3 -178,21 -21,12 8,40 58,43 203,15 269,-86 272,-231z"/>
    <path class="fil7" d="M1209 527c-5,21 -9,-145 -145,-249 -59,-45 -114,-73 -164,-89 -159,-53 -275,5 -363,-43 -43,-24 17,-81 118,-88 413,-31 547,176 553,470z"/>
    <path class="fil19" d="M783 179c-34,-1 -11,8 -3,10 116,17 258,88 339,180 2,3 31,31 17,8 -82,-113 -216,-196 -353,-198z"/>
    <g>
     <path class="fil7" d="M170 433c3,10 4,-71 71,-122 29,-22 56,-36 81,-44 78,-26 135,3 178,-21 21,-12 -8,-40 -58,-43 -203,-15 -269,86 -272,231z"/>
     <path class="fil7" d="M392 263c19,-1 6,5 2,5 -64,9 -142,49 -187,99 -1,1 -17,17 -9,5 45,-62 119,-108 194,-109z"/>
    </g>
    <path class="fil7" d="M863 1390c-19,1 -6,-5 -2,-5 64,-9 142,-49 187,-99 1,-1 17,-17 9,-5 -45,62 -119,108 -194,109z"/>
    <path class="fil19" d="M669 175c28,-3 50,-3 70,0 4,0 15,3 15,7 0,4 -11,7 -15,7 -20,-3 -44,-2 -70,0 -4,0 -15,-2 -15,-6 0,-4 12,-7 15,-8z"/>
    <g>
     <path class="fil19" d="M502 1499c34,1 11,-8 3,-10 -116,-17 -258,-88 -339,-180 -2,-3 -31,-31 -17,-8 82,113 216,196 353,198z"/>
     <path class="fil19" d="M616 1502c-28,3 -50,3 -70,0 -4,0 -15,-3 -15,-7 0,-4 11,-7 15,-7 20,3 44,2 70,0 4,0 15,2 15,6 0,4 -12,7 -15,8z"/>
    </g>
   </g>
  </g>
 </g>
</svg>
